<?xml version="1.0" standalone="no"?>
<!DOCTYPE svg PUBLIC "-//W3C//DTD SVG 20010904//EN"
 "http://www.w3.org/TR/2001/REC-SVG-20010904/DTD/svg10.dtd">
<svg version="1.0" xmlns="http://www.w3.org/2000/svg"
 width="200.000000pt" height="200.000000pt" viewBox="0 0 200.000000 200.000000"
 preserveAspectRatio="xMidYMid meet">

<g transform="translate(0.000000,200.000000) scale(0.100000,-0.100000)"
fill="#008349" stroke="none">
<path d="M731 1704 c-48 -128 -50 -204 -6 -280 40 -68 179 -179 210 -168 35
14 50 225 21 282 -15 29 -33 49 -124 136 -29 27 -54 58 -58 68 -9 31 -22 20
-43 -38z"/>
<path d="M1328 1684 c-3 -5 -8 -21 -12 -36 -4 -18 -41 -54 -117 -115 -62 -48
-127 -108 -145 -132 -77 -100 -84 -252 -18 -383 21 -42 28 -48 55 -48 35 0 51
7 139 66 69 45 116 105 146 186 22 57 21 211 0 303 -28 120 -43 169 -48 159z"/>
<path d="M221 1336 c9 -28 33 -107 52 -176 20 -69 52 -161 72 -205 85 -185
284 -309 548 -340 48 -6 61 -4 77 10 18 16 20 32 20 156 0 210 -25 292 -118
388 -82 85 -204 129 -421 151 -119 12 -173 24 -217 50 l-31 17 18 -51z"/>
<path d="M1751 1073 c-21 -9 -98 -18 -190 -23 -201 -11 -265 -30 -347 -102
-70 -61 -156 -230 -170 -332 -6 -41 -5 -45 22 -58 52 -26 249 10 358 64 131
66 253 197 328 355 48 99 48 116 -1 96z"/>
<path d="M680 283 c-92 -47 -87 -180 8 -220 40 -16 79 -12 117 13 l26 17 -22
23 c-19 20 -23 21 -36 8 -20 -20 -67 -18 -86 4 -10 10 -17 32 -17 49 0 52 52
79 102 52 16 -9 24 -7 36 5 15 15 15 18 -4 36 -29 29 -82 35 -124 13z"/>
<path d="M217 283 c-4 -3 -7 -55 -7 -115 l0 -108 30 0 c28 0 30 2 30 40 0 61
39 52 55 -13 6 -22 13 -27 37 -27 26 0 29 3 22 23 -3 12 -13 34 -21 50 -12 24
-12 30 2 49 21 32 19 55 -10 83 -20 20 -34 25 -78 25 -29 0 -57 -3 -60 -7z
m101 -45 c16 -16 -3 -48 -28 -48 -16 0 -20 7 -20 30 0 22 5 30 18 30 10 0 23
-5 30 -12z"/>
<path d="M430 175 l0 -115 75 0 c73 0 75 1 75 25 0 23 -3 25 -50 25 -47 0 -50
2 -50 25 0 23 3 25 50 25 47 0 50 2 50 25 0 23 -3 25 -50 25 -38 0 -50 4 -50
15 0 11 12 15 50 15 47 0 50 2 50 25 0 24 -2 25 -75 25 l-75 0 0 -115z"/>
<path d="M856 281 c-3 -4 -5 -56 -5 -115 l2 -106 28 0 29 0 0 115 0 115 -24 0
c-14 0 -27 -4 -30 -9z"/>
<path d="M960 174 l0 -115 28 3 c23 3 27 7 27 36 0 28 3 32 26 32 44 0 79 35
79 80 0 54 -34 80 -106 80 l-54 0 0 -116z m104 51 c9 -24 -4 -45 -28 -45 -19
0 -22 4 -18 30 5 32 35 42 46 15z"/>
<path d="M1160 176 l0 -116 31 0 c23 0 30 4 28 18 -7 72 23 86 48 22 14 -34
21 -40 45 -40 l28 0 -15 37 c-9 20 -19 41 -24 47 -6 7 -4 19 5 30 18 25 18 67
0 91 -10 14 -30 20 -80 23 l-66 4 0 -116z m105 44 c0 -20 -5 -25 -25 -25 -20
0 -25 5 -26 28 -1 25 2 28 25 25 20 -2 26 -9 26 -28z"/>
<path d="M1379 288 c-1 -2 -2 -54 -4 -115 l-2 -113 78 0 c78 0 79 0 79 25 0
23 -3 25 -50 25 -47 0 -50 2 -50 25 0 23 4 25 45 25 41 0 45 2 45 25 0 23 -4
25 -45 25 -33 0 -45 4 -45 15 0 11 12 15 51 15 47 0 50 2 47 23 -3 20 -9 22
-75 25 -40 2 -74 2 -74 0z"/>
<path d="M1553 278 c79 -212 81 -218 107 -218 24 0 29 9 65 107 22 58 42 110
43 115 2 4 -10 8 -26 8 -28 0 -32 -5 -54 -65 -12 -36 -25 -65 -29 -65 -3 0
-16 29 -28 65 -22 60 -25 65 -53 65 -20 0 -29 -4 -25 -12z"/>
</g>
</svg>
